<svg width="172" height="68" viewBox="0 0 172 68" fill="none" xmlns="http://www.w3.org/2000/svg">
<rect x="0.649988" y="0.650003" width="170.3" height="66.3" rx="33.15" fill="#4F4F4F" stroke="url(#paint0_linear_1_43)" stroke-width="1.3"/>
<mask id="mask0_1_43" style="mask-type:alpha" maskUnits="userSpaceOnUse" x="1" y="1" width="170" height="66">
<rect x="1.29999" y="1.3" width="169" height="65" rx="32.5" fill="black"/>
</mask>
<g mask="url(#mask0_1_43)">
<g filter="url(#filter0_i_1_43)">
<rect x="1.29999" y="1.3" width="169" height="65" rx="32.5" fill="#1F2533"/>
</g>
<path d="M16.25 20.8L16.7767 22.2233L18.2 22.75L16.7767 23.2767L16.25 24.7L15.7233 23.2767L14.3 22.75L15.7233 22.2233L16.25 20.8Z" fill="#DEE5F3"/>
<path d="M39.65 31.2L40.1766 32.6233L41.6 33.15L40.1766 33.6767L39.65 35.1L39.1233 33.6767L37.7 33.15L39.1233 32.6233L39.65 31.2Z" fill="#DEE5F3"/>
<path d="M21.4499 54.6L21.9766 56.0233L23.3999 56.55L21.9766 57.0767L21.4499 58.5L20.9233 57.0767L19.4999 56.55L20.9233 56.0233L21.4499 54.6Z" fill="#DEE5F3"/>
<path d="M27.95 35.1L28.1255 35.5744L28.6 35.75L28.1255 35.9256L27.95 36.4L27.7744 35.9256L27.3 35.75L27.7744 35.5744L27.95 35.1Z" fill="#DEE5F3"/>
<path d="M17.55 44.2L17.7255 44.6744L18.2 44.85L17.7255 45.0256L17.55 45.5L17.3744 45.0256L16.9 44.85L17.3744 44.6744L17.55 44.2Z" fill="#DEE5F3"/>
<path d="M32.175 57.2L32.4383 57.9117L33.15 58.175L32.4383 58.4383L32.175 59.15L31.9116 58.4383L31.2 58.175L31.9116 57.9117L32.175 57.2Z" fill="#DEE5F3"/>
<g filter="url(#filter1_f_1_43)">
<path d="M15.275 31.2L15.5383 31.9117L16.25 32.175L15.5383 32.4383L15.275 33.15L15.0116 32.4383L14.3 32.175L15.0116 31.9117L15.275 31.2Z" fill="#DEE5F3"/>
</g>
<path d="M9.74998 50.7L9.92553 51.1744L10.4 51.35L9.92553 51.5256L9.74998 52L9.57442 51.5256L9.09998 51.35L9.57442 51.1744L9.74998 50.7Z" fill="#DEE5F3"/>
<path d="M42.25 48.1L42.4255 48.5744L42.9 48.75L42.4255 48.9256L42.25 49.4L42.0744 48.9256L41.6 48.75L42.0744 48.5744L42.25 48.1Z" fill="#DEE5F3"/>
<path d="M30.55 14.3L30.7255 14.7744L31.2 14.95L30.7255 15.1256L30.55 15.6L30.3744 15.1256L29.9 14.95L30.3744 14.7744L30.55 14.3Z" fill="#DEE5F3"/>
<path d="M4.54996 35.1L4.72552 35.5744L5.19996 35.75L4.72552 35.9256L4.54996 36.4L4.3744 35.9256L3.89996 35.75L4.3744 35.5744L4.54996 35.1Z" fill="#DEE5F3"/>
<path d="M50.05 7.8L50.5767 9.22333L52 9.75L50.5767 10.2767L50.05 11.7L49.5233 10.2767L48.1 9.75L49.5233 9.22333L50.05 7.8Z" fill="#DEE5F3"/>
<path d="M79.9499 20.8L80.4766 22.2233L81.8999 22.75L80.4766 23.2767L79.9499 24.7L79.4233 23.2767L77.9999 22.75L79.4233 22.2233L79.9499 20.8Z" fill="#DEE5F3"/>
<path d="M61.75 50.7L62.2767 52.1233L63.7 52.65L62.2767 53.1767L61.75 54.6L61.2233 53.1767L59.8 52.65L61.2233 52.1233L61.75 50.7Z" fill="#DEE5F3"/>
<path d="M68.25 24.7L68.4255 25.1744L68.9 25.35L68.4255 25.5256L68.25 26L68.0744 25.5256L67.6 25.35L68.0744 25.1744L68.25 24.7Z" fill="#DEE5F3"/>
<path d="M63.05 39L63.2255 39.4744L63.7 39.65L63.2255 39.8256L63.05 40.3L62.8744 39.8256L62.4 39.65L62.8744 39.4744L63.05 39Z" fill="#DEE5F3"/>
<path d="M69.875 32.5L70.1383 33.2117L70.85 33.475L70.1383 33.7383L69.875 34.45L69.6116 33.7383L68.9 33.475L69.6116 33.2117L69.875 32.5Z" fill="#DEE5F3"/>
<g filter="url(#filter2_f_1_43)">
<path d="M55.575 20.8L55.8383 21.5117L56.55 21.775L55.8383 22.0383L55.575 22.75L55.3116 22.0383L54.6 21.775L55.3116 21.5117L55.575 20.8Z" fill="#DEE5F3"/>
</g>
<g filter="url(#filter3_f_1_43)">
<path d="M50.05 39L50.2255 39.4744L50.7 39.65L50.2255 39.8256L50.05 40.3L49.8744 39.8256L49.4 39.65L49.8744 39.4744L50.05 39Z" fill="#DEE5F3"/>
</g>
<path d="M82.55 37.7L82.7255 38.1744L83.2 38.35L82.7255 38.5256L82.55 39L82.3744 38.5256L81.9 38.35L82.3744 38.1744L82.55 37.7Z" fill="#DEE5F3"/>
<path d="M76.05 11.7L76.2255 12.1744L76.7 12.35L76.2255 12.5256L76.05 13L75.8744 12.5256L75.4 12.35L75.8744 12.1744L76.05 11.7Z" fill="#DEE5F3"/>
<path d="M44.85 24.7L45.0255 25.1744L45.5 25.35L45.0255 25.5256L44.85 26L44.6744 25.5256L44.2 25.35L44.6744 25.1744L44.85 24.7Z" fill="#DEE5F3"/>
</g>
<defs>
<filter id="filter0_i_1_43" x="1.29999" y="1.3" width="169" height="72.8" filterUnits="userSpaceOnUse" color-interpolation-filters="sRGB">
<feFlood flood-opacity="0" result="BackgroundImageFix"/>
<feBlend mode="normal" in="SourceGraphic" in2="BackgroundImageFix" result="shape"/>
<feColorMatrix in="SourceAlpha" type="matrix" values="0 0 0 0 0 0 0 0 0 0 0 0 0 0 0 0 0 0 127 0" result="hardAlpha"/>
<feOffset dy="7.8"/>
<feGaussianBlur stdDeviation="5.85"/>
<feComposite in2="hardAlpha" operator="arithmetic" k2="-1" k3="1"/>
<feColorMatrix type="matrix" values="0 0 0 0 0.0903125 0 0 0 0 0.105719 0 0 0 0 0.141667 0 0 0 1 0"/>
<feBlend mode="normal" in2="shape" result="effect1_innerShadow_1_43"/>
</filter>
<filter id="filter1_f_1_43" x="14.04" y="30.94" width="2.47001" height="2.47" filterUnits="userSpaceOnUse" color-interpolation-filters="sRGB">
<feFlood flood-opacity="0" result="BackgroundImageFix"/>
<feBlend mode="normal" in="SourceGraphic" in2="BackgroundImageFix" result="shape"/>
<feGaussianBlur stdDeviation="0.13" result="effect1_foregroundBlur_1_43"/>
</filter>
<filter id="filter2_f_1_43" x="54.34" y="20.54" width="2.47001" height="2.47" filterUnits="userSpaceOnUse" color-interpolation-filters="sRGB">
<feFlood flood-opacity="0" result="BackgroundImageFix"/>
<feBlend mode="normal" in="SourceGraphic" in2="BackgroundImageFix" result="shape"/>
<feGaussianBlur stdDeviation="0.13" result="effect1_foregroundBlur_1_43"/>
</filter>
<filter id="filter3_f_1_43" x="49.14" y="38.74" width="1.81999" height="1.82" filterUnits="userSpaceOnUse" color-interpolation-filters="sRGB">
<feFlood flood-opacity="0" result="BackgroundImageFix"/>
<feBlend mode="normal" in="SourceGraphic" in2="BackgroundImageFix" result="shape"/>
<feGaussianBlur stdDeviation="0.13" result="effect1_foregroundBlur_1_43"/>
</filter>
<linearGradient id="paint0_linear_1_43" x1="87.75" y1="-14.3" x2="88.4" y2="86.45" gradientUnits="userSpaceOnUse">
<stop offset="0.125"/>
<stop offset="1" stop-color="white" stop-opacity="0"/>
</linearGradient>
</defs>
</svg>
