<svg width="172" height="68" viewBox="0 0 172 68" fill="none" xmlns="http://www.w3.org/2000/svg">
<rect x="0.649988" y="0.650003" width="170.3" height="66.3" rx="33.15" fill="#A2D1FD" stroke="url(#paint0_linear_1_40)" stroke-width="1.3"/>
<mask id="mask0_1_40" style="mask-type:alpha" maskUnits="userSpaceOnUse" x="1" y="1" width="170" height="66">
<rect x="1.29999" y="1.3" width="169" height="65" rx="32.5" fill="#E0FDFF"/>
</mask>
<g mask="url(#mask0_1_40)">
<g filter="url(#filter0_i_1_40)">
<rect x="1.29999" y="1.3" width="169" height="65" rx="32.5" fill="#A2D1FD"/>
</g>
<g opacity="0.95">
<circle cx="93.5504" cy="60.1421" r="13.65" transform="rotate(-3.84411 93.5504 60.1421)" fill="white"/>
<circle cx="112.484" cy="51.0523" r="13.65" transform="rotate(-3.84411 112.484 51.0523)" fill="white"/>
<circle cx="113.529" cy="66.6172" r="13.65" transform="rotate(-3.84411 113.529 66.6172)" fill="white"/>
<circle cx="129.607" cy="53.8106" r="13.65" transform="rotate(-3.84411 129.607 53.8106)" fill="white"/>
<circle cx="136.964" cy="66.3455" r="13.65" transform="rotate(-3.84411 136.964 66.3455)" fill="white"/>
<circle cx="150.622" cy="56.3073" r="13.65" transform="rotate(-3.84411 150.622 56.3073)" fill="white"/>
</g>
<g opacity="0.95">
<circle cx="25.4572" cy="72.3981" r="13.65" transform="rotate(-3.84411 25.4572 72.3981)" fill="white"/>
<circle cx="44.3904" cy="63.3083" r="13.65" transform="rotate(-3.84411 44.3904 63.3083)" fill="white"/>
<circle cx="45.4363" cy="78.8732" r="13.65" transform="rotate(-3.84411 45.4363 78.8732)" fill="white"/>
<circle cx="61.5138" cy="66.0665" r="13.65" transform="rotate(-3.84411 61.5138 66.0665)" fill="white"/>
<circle cx="68.8708" cy="78.6015" r="13.65" transform="rotate(-3.84411 68.8708 78.6015)" fill="white"/>
<circle cx="82.5286" cy="68.5632" r="13.65" transform="rotate(-3.84411 82.5286 68.5632)" fill="white"/>
</g>
<g opacity="0.6">
<circle cx="105.391" cy="42.4957" r="13.65" transform="rotate(-3.84411 105.391 42.4957)" fill="white"/>
<circle cx="124.324" cy="33.406" r="13.65" transform="rotate(-3.84411 124.324 33.406)" fill="white"/>
<circle cx="125.37" cy="48.9709" r="13.65" transform="rotate(-3.84411 125.37 48.9709)" fill="white"/>
<circle cx="141.448" cy="36.1642" r="13.65" transform="rotate(-3.84411 141.448 36.1642)" fill="white"/>
<circle cx="148.805" cy="48.6992" r="13.65" transform="rotate(-3.84411 148.805 48.6992)" fill="white"/>
<circle cx="162.462" cy="38.6609" r="13.65" transform="rotate(-3.84411 162.462 38.6609)" fill="white"/>
</g>
<g opacity="0.6">
<circle cx="47.717" cy="64.2256" r="13.65" transform="rotate(-4.59401 47.717 64.2256)" fill="white"/>
<circle cx="66.5296" cy="54.8888" r="13.65" transform="rotate(-4.59401 66.5296 54.8888)" fill="white"/>
<circle cx="67.7792" cy="70.4387" r="13.65" transform="rotate(-4.59401 67.7792 70.4387)" fill="white"/>
<circle cx="83.6877" cy="57.4227" r="13.65" transform="rotate(-4.59401 83.6877 57.4227)" fill="white"/>
<circle cx="91.2081" cy="69.8603" r="13.65" transform="rotate(-4.59401 91.2081 69.8603)" fill="white"/>
<circle cx="104.733" cy="59.6442" r="13.65" transform="rotate(-4.59401 104.733 59.6442)" fill="white"/>
</g>
</g>
<defs>
<filter id="filter0_i_1_40" x="1.29999" y="1.3" width="169" height="72.8" filterUnits="userSpaceOnUse" color-interpolation-filters="sRGB">
<feFlood flood-opacity="0" result="BackgroundImageFix"/>
<feBlend mode="normal" in="SourceGraphic" in2="BackgroundImageFix" result="shape"/>
<feColorMatrix in="SourceAlpha" type="matrix" values="0 0 0 0 0 0 0 0 0 0 0 0 0 0 0 0 0 0 127 0" result="hardAlpha"/>
<feOffset dy="7.8"/>
<feGaussianBlur stdDeviation="5.85"/>
<feComposite in2="hardAlpha" operator="arithmetic" k2="-1" k3="1"/>
<feColorMatrix type="matrix" values="0 0 0 0 0.445833 0 0 0 0 0.734 0 0 0 0 1 0 0 0 1 0"/>
<feBlend mode="normal" in2="shape" result="effect1_innerShadow_1_40"/>
</filter>
<linearGradient id="paint0_linear_1_40" x1="87.75" y1="-14.3" x2="88.4" y2="86.45" gradientUnits="userSpaceOnUse">
<stop offset="0.125" stop-color="#6CB8FF"/>
<stop offset="1" stop-color="white" stop-opacity="0"/>
</linearGradient>
</defs>
</svg>
