<?xml version="1.0" encoding="UTF-8"?>
<svg version="1.1" xmlns="http://www.w3.org/2000/svg" width="48" height="48">
<path d="M0 0 C4.31633181 3.18586395 7.91120739 6.79612218 9.625 11.9375 C10.57416973 24.58701198 10.57416973 24.58701198 6.625 29.9375 C1.6016523 34.9608477 -1.93953616 37.07809677 -9.1875 37.1875 C-15.00495029 37.11049404 -18.78081164 36.53168836 -23.02734375 32.28515625 C-28.10018167 26.63938605 -28.68170367 22.40870416 -28.58203125 14.87890625 C-28.18423016 9.22712847 -25.94917386 6.28572704 -21.875 2.625 C-15.80117425 -2.44984125 -7.33000764 -2.307595 0 0 Z " fill="#BBBBBB" transform="translate(33.375,6.0625)"/>
<path d="M0 0 C0.33 1.32 0.66 2.64 1 4 C1.515625 3.484375 2.03125 2.96875 2.5625 2.4375 C5.9710271 0.42734299 8.23106857 1.20272604 12 2 C11.67 4.31 11.34 6.62 11 9 C11.66 9 12.32 9 13 9 C13.66 7.02 14.32 5.04 15 3 C17.475 3.495 17.475 3.495 20 4 C20.12375 4.928125 20.12375 4.928125 20.25 5.875 C20.78597843 8.14390805 20.78597843 8.14390805 22.8125 9 C23.534375 9.33 24.25625 9.66 25 10 C26.37086915 11.29470975 27.71340837 12.62150897 29 14 C28.67 14.99 28.34 15.98 28 17 C26.35 16.67 24.7 16.34 23 16 C23.66 17.65 24.32 19.3 25 21 C21.21304827 20.4590069 19.37254028 18.96567536 17 16 C17 14.68 17 13.36 17 12 C13.34462172 13.18324076 13.34462172 13.18324076 11 16 C10.85268388 17.9468574 10.85268388 17.9468574 10.9375 20.0625 C10.958125 21.361875 10.97875 22.66125 11 24 C9 26 9 26 6 26.25 C3 26 3 26 1 24 C1 23.01 1 22.02 1 21 C0.401875 20.9175 -0.19625 20.835 -0.8125 20.75 C-3.76224781 19.73865789 -4.54953762 18.75587853 -6 16 C-6.58212894 10.76083956 -5.74518609 7.4736366 -3 3 C-1.3125 1.125 -1.3125 1.125 0 0 Z " fill="#777777" transform="translate(11,9)"/>
<path d="M0 0 C4.31633181 3.18586395 7.91120739 6.79612218 9.625 11.9375 C9.76720279 13.60017874 9.84520567 15.2690173 9.875 16.9375 C9.90078125 17.80375 9.9265625 18.67 9.953125 19.5625 C9.625 21.9375 9.625 21.9375 8.359375 23.75 C6.625 24.9375 6.625 24.9375 2.625 24.9375 C1.965 22.9575 1.305 20.9775 0.625 18.9375 C2.275 18.9375 3.925 18.9375 5.625 18.9375 C4.51053115 16.10067019 3.54905976 14.87674781 1.125 12.9375 C-1.29905976 10.99825219 -2.26053115 9.77432981 -3.375 6.9375 C-4.695 6.9375 -6.015 6.9375 -7.375 6.9375 C-8.035 8.9175 -8.695 10.8975 -9.375 12.9375 C-10.365 12.6075 -11.355 12.2775 -12.375 11.9375 C-11.715 9.6275 -11.055 7.3175 -10.375 4.9375 C-15.39754631 4.6420561 -18.27042386 4.95235372 -22.375 7.9375 C-22.25 5.125 -22.25 5.125 -21.375 1.9375 C-15.60481314 -2.74102989 -6.76724597 -2.13042929 0 0 Z " fill="#9A9A9A" transform="translate(33.375,6.0625)"/>
</svg>
